<svg xmlns="http://www.w3.org/2000/svg" xmlns:xlink="http://www.w3.org/1999/xlink" width="500" zoomAndPan="magnify" viewBox="0 0 375 374.999991" height="500" preserveAspectRatio="xMidYMid meet" version="1.0"><defs><clipPath id="41a3af219f"><path d="M 123.816406 112.5 L 251.316406 112.5 L 251.316406 262.5 L 123.816406 262.5 Z M 123.816406 112.5 " clip-rule="nonzero"/></clipPath></defs><g clip-path="url(#41a3af219f)"><path fill="#ffffff" d="M 250.777344 208.230469 C 250.78125 208.257812 250.789062 208.285156 250.789062 208.316406 C 250.789062 205.820312 249.839844 203.546875 248.300781 201.820312 L 247.507812 201.027344 C 245.78125 199.484375 243.511719 198.542969 241.011719 198.542969 C 238.441406 198.542969 236.113281 199.539062 234.363281 201.164062 L 233.859375 201.671875 C 233.0625 202.527344 232.417969 203.523438 231.96875 204.625 C 231.5 205.761719 231.238281 207.007812 231.238281 208.316406 C 231.238281 208.382812 231.246094 208.453125 231.246094 208.519531 C 226.683594 228.28125 208.953125 243.058594 187.832031 243.058594 C 163.253906 243.058594 143.261719 223.066406 143.261719 198.488281 C 143.261719 178.203125 156.921875 161.085938 180.964844 155.710938 L 180.964844 157.675781 L 181.660156 157.675781 L 181.660156 181.820312 L 229.949219 147.953125 L 181.660156 112.484375 L 181.660156 135.78125 C 145.894531 141.703125 123.8125 167.550781 123.8125 198.488281 C 123.8125 233.789062 152.53125 262.507812 187.832031 262.507812 C 219.8125 262.507812 246.371094 238.925781 251.085938 208.238281 C 250.984375 208.234375 250.878906 208.230469 250.777344 208.230469 " fill-opacity="1" fill-rule="nonzero"/></g></svg>